<svg xmlns="http://www.w3.org/2000/svg" viewBox="0 0 24 24" width="100%" height="100%"><path d="M6.39 11.88a1.7 1.7 0 0 0 1-1.63C7.34 8.87 6.67 8 5 8s-2.44 1-2.5 2.57h1.2c.06-1.09.41-1.41 1.23-1.41s1.2.32 1.2 1.16-.36 1.11-1.19 1.11h-.63v1.12H5c1 0 1.29.38 1.29 1.24S5.87 15 5 15s-1.27-.38-1.33-1.47H2.5C2.57 15.28 3.26 16 5 16s2.48-.83 2.48-2.25a1.76 1.76 0 0 0-1.09-1.87m4.76-1.08a2 2 0 0 0-.65.13L12.3 8h-1.36l-1.7 2.81a4.4 4.4 0 0 0-.75 2.57c0 1.91.87 2.62 2.51 2.62s2.52-.71 2.52-2.62-.83-2.58-2.37-2.58M11 15c-1 0-1.28-.41-1.28-1.55s.32-1.51 1.28-1.51 1.27.42 1.27 1.51S12 15 11 15m6-7c-2 0-2.53 1.09-2.53 4 0 3.12.63 4.05 2.51 4.05S19.5 15 19.5 12c0-2.93-.5-4-2.5-4m0 7c-1.06 0-1.24-.54-1.24-3 0-2.28.25-2.79 1.24-2.79s1.25.51 1.25 2.79c-.02 2.43-.2 3-1.25 3m4-7a1 1 0 1 0 1 1 1 1 0 0 0-1-1m0 1.47a.47.47 0 0 1 0-.94.47.47 0 0 1 0 .94"/></svg>