<svg xmlns="http://www.w3.org/2000/svg" viewBox="0 0 24 24" width="100%" height="100%"><path d="M5 19h14v1H5zM7 6a8 8 0 0 0 .53 2.66A7 7 0 0 1 8 11a7 7 0 0 1-.47 2.34A8 8 0 0 0 7 16v1h1v-1a7 7 0 0 1 .47-2.34A8 8 0 0 0 9 11a8 8 0 0 0-.53-2.66A7 7 0 0 1 8 6V5h1L7.5 3 6 5h1Zm4.9 3.17c-.37.13-1.93 1-1.15 2.39A2.6 2.6 0 0 0 13 12.73v.68c-1.24.22-2.13-.29-2.64-.1s-.32 1.42-.19 1.79 1 1.93 2.39 1.15A2.6 2.6 0 0 0 13.73 14h.68c.22 1.24-.29 2.13-.1 2.64s1.42.32 1.79.19 1.93-1 1.15-2.39A2.6 2.6 0 0 0 15 13.27v-.68c1.24-.22 2.13.29 2.64.1s.32-1.42.19-1.79-1-1.93-2.39-1.15A2.6 2.6 0 0 0 14.27 12h-.68c-.22-1.24.29-2.13.1-2.64S12.27 9 11.9 9.17M15 6a7 7 0 0 0 .32 2h1l-.05-.15A6 6 0 0 1 16 6V5h1l-1.5-2L14 5h1Zm-4 0a7 7 0 0 0 .32 2h1A6 6 0 0 1 12 6V5h1l-1.5-2L10 5h1Z"/></svg>