<svg xmlns="http://www.w3.org/2000/svg" viewBox="0 0 24 24" width="100%" height="100%"><path d="M12 7h1V5a2 2 0 0 0-2-2h-.5V2h-4v1H6a2 2 0 0 0-2 2v15c0 1.1.9 2 2 2h5a2 2 0 0 0 2-2v-3h-1v3a1 1 0 0 1-1 1H6a1 1 0 0 1-1-1V5a1 1 0 0 1 1-1h5a1 1 0 0 1 1 1zm-1 13H6v-1h5zm-.86-10.98c.94 0 1.2.38 1.27 1.63h1.1C12.45 8.83 12.09 8 10.15 8s-2.64.8-2.64 3.5.55 3.5 2.64 3.5c1.72 0 2.3-.74 2.38-2.58h-1.1c-.07 1.27-.3 1.68-1.28 1.68-1.2 0-1.44-.37-1.44-2.64 0-2.02.23-2.45 1.44-2.45M15.87 8c-2.01 0-2.64.8-2.64 3.5s.55 3.5 2.64 3.5 2.63-.88 2.63-3.5S17.88 8 15.87 8m0 6.1c-1.2 0-1.43-.37-1.43-2.64 0-2.02.23-2.45 1.43-2.45s1.43.43 1.43 2.45c0 2.27-.23 2.64-1.43 2.64m4.2.94.34-.21a1 1 0 0 0 .59-.92c0-.56-.26-.91-1-.91s-1 .39-1 .98h.56c0-.37.13-.46.44-.46s.42.1.42.39-.18.46-.43.62l-.35.2a1 1 0 0 0-.6.94V16h1.92v-.46h-1.33c-.01-.2.15-.32.44-.5"/></svg>