<svg xmlns="http://www.w3.org/2000/svg" viewBox="0 0 24 24" width="100%" height="100%"><path d="M14 8a2 2 0 1 0-2.69 1.87L8 20l1 1 3-3 3 3 1-1-3.31-10.13A2 2 0 0 0 14 8m-3 0a1 1 0 1 1 1 1 1 1 0 0 1-1-1m1.71 9.29-.71-.7-.71.7-2 2L12 11l2.71 8.31ZM8 7.62a4 4 0 0 1 .66-2.12L7.85 5A4.6 4.6 0 0 0 7 7.62 4 4 0 0 0 7.85 10l.8-.5A3 3 0 0 1 8 7.62M5.54 3A7.2 7.2 0 0 0 4 7.58 7.3 7.3 0 0 0 5.4 12l.8-.56A6.4 6.4 0 0 1 5 7.58a6.3 6.3 0 0 1 1.34-4Zm9.8 2.5A4 4 0 0 1 16 7.62a3 3 0 0 1-.65 1.88l.8.5A4 4 0 0 0 17 7.62 4.6 4.6 0 0 0 16.15 5ZM18.46 3l-.8.56a6.3 6.3 0 0 1 1.34 4 6.4 6.4 0 0 1-1.2 3.86l.8.56a7.3 7.3 0 0 0 1.4-4.4A7.2 7.2 0 0 0 18.46 3"/></svg>