<svg xmlns="http://www.w3.org/2000/svg" viewBox="0 0 24 24" width="100%" height="100%"><path d="m19.42 9.25.25-.38h.93a.5.5 0 0 0 .4-.43.5.5 0 0 0-.49-.44h-1.08a.4.4 0 0 0-.38.24l-.52.76H18a3.43 3.43 0 0 0-3.75-3H9.81C7.69 6 6.28 7.17 6.06 9h-.58L5 8.24A.4.4 0 0 0 4.57 8H3.49a.5.5 0 0 0-.49.43.5.5 0 0 0 .4.43h.93l.25.38Q3.01 10.01 3 13v3.23a.8.8 0 0 0 .8.77h1.82C6.16 17 7 17 7 16h10c0 1 .85 1 1.4 1h1.82a.8.8 0 0 0 .78-.77V13q0-3-1.58-3.75M9.81 7h4.4A2.46 2.46 0 0 1 17 9H7.05c.21-1.26 1.2-2 2.76-2M20 16h-2v-.5a.5.5 0 0 0-.5-.5H16a1 1 0 0 0-1-1H9a1 1 0 0 0-1 1H6.51a.5.5 0 0 0-.5.5v.5H4v-3c0-2.64.91-3 1.79-3h12.42c.88 0 1.79.36 1.79 3Z"/><path d="M18.56 11h-1.13A1.43 1.43 0 0 0 16 12.43a.1.1 0 0 0 .07.07h2.74a.2.2 0 0 0 .19-.2v-.64c0-.56-.08-.66-.44-.66M6.58 11H5.45c-.36 0-.43.1-.43.66v.64a.2.2 0 0 0 .2.2h2.72a.1.1 0 0 0 .06-.07A1.43 1.43 0 0 0 6.58 11"/></svg>