<svg xmlns="http://www.w3.org/2000/svg" viewBox="0 0 24 24" width="100%" height="100%"><defs><clipPath id="a"><path d="M9 8v4h1l-3 5v-4H6ZM8 4c-2.82 0-3 .71-3 1v15h6V5.11C11 4.81 11 4 8 4m0-1c3.2 0 4 .94 4 2.11V11h1.05a2 2 0 0 1 .95.19 1.9 1.9 0 0 1 1 1.93v5.63c0 1.15.5 1.25 1 1.25s1-.1 1-1.25V11c-1-.12-2-1-2-3h1V6h1v2h1V6h1v2h1c0 2-1 2.9-2 3v7.75C18 20 17.52 21 16 21s-2-1-2-2.25V13c0-.73-.26-1-.92-1H12v9H4V5.11C4 3.94 4.82 3 8 3" clip-rule="evenodd"/></clipPath></defs><path d="M-.98-2h26v28h-26z" clip-path="url(#a)"/></svg>