<svg xmlns="http://www.w3.org/2000/svg" viewBox="0 0 24 24" width="100%" height="100%"><path d="M5 19h14v1H5zM6 6a8 8 0 0 0 .53 2.66A7 7 0 0 1 7 11a7 7 0 0 1-.47 2.34A8 8 0 0 0 6 16v1h1v-1a7 7 0 0 1 .47-2.34A8 8 0 0 0 8 11a8 8 0 0 0-.53-2.66A7 7 0 0 1 7 6V5h1L6.5 3 5 5h1Zm4 0a8 8 0 0 0 .53 2.66A7 7 0 0 1 11 11a7 7 0 0 1-.47 2.34A8 8 0 0 0 10 16v1h1v-1a7 7 0 0 1 .47-2.34A8 8 0 0 0 12 11a8 8 0 0 0-.53-2.66A7 7 0 0 1 11 6V5h1l-1.5-2L9 5h1Zm9.18 7.09-.12-.7-1.05.18V9.43l1.05.18.12-.7-.56-.1.88-.5-.35-.62-.89.51.2-.53-.66-.24-.34.93-2.7-1.58.63-.74-.54-.46-.37.44V5h-.71v1.02l-.36-.44-.54.46.62.74-.49.29v1.16l1.13-.66 2.88 1.68v3.38l-2.88 1.68-1.13-.66v1.16l.56.33-.69.82.54.46.36-.44V17h.71v-1.02l.37.44.54-.46-.69-.82 2.72-1.59.38 1.02.66-.24-.2-.53.89.51.35-.62-.88-.5z"/></svg>