<svg xmlns="http://www.w3.org/2000/svg" viewBox="0 0 24 24" width="100%" height="100%"><path d="M3 6v12h18V6Zm17 11H4V7h16Z"/><path d="M9.21 15c1.44 0 1.92-.68 2-2.25h-.92c-.06 1.08-.26 1.48-1.07 1.48C8.2 14.23 8 13.91 8 12c0-1.73.2-2.1 1.21-2.1.81 0 1 .32 1.06 1.4h.93C11.13 9.71 10.83 9 9.21 9S7 9.68 7 12s.46 3 2.21 3M15 15c1.44 0 1.92-.68 2-2.25h-.92c-.06 1.08-.25 1.48-1.07 1.48-1 0-1.21-.32-1.21-2.26 0-1.73.2-2.1 1.21-2.1.82 0 1 .32 1.06 1.4H17C16.93 9.71 16.63 9 15 9s-2.21.68-2.21 3 .48 3 2.21 3"/></svg>