<svg xmlns="http://www.w3.org/2000/svg" viewBox="0 0 24 24" width="100%" height="100%"><path d="m11.83 4 .86.75-.86.75H5V4zM12 3H4.5c-.28 0-.5.2-.5.44v2.62c0 .24.22.44.5.44H12q.2 0 .35-.13l1.5-1.31a.4.4 0 0 0 0-.62l-1.5-1.31A.5.5 0 0 0 12 3m2.35 8.2 1.5-1.3a.4.4 0 0 0 0-.63l-1.5-1.3a.5.5 0 0 0-.35-.14H4.5c-.28 0-.5.2-.5.44v2.63c0 .24.22.43.5.43H14q.2 0 .35-.12m4.48 7.3.86.75-.86.75H5v-1.5zm.17-1H4.5c-.28 0-.5.2-.5.44v2.62c0 .24.22.44.5.44H19q.2 0 .35-.13l1.5-1.31a.4.4 0 0 0 0-.62l-1.5-1.31a.5.5 0 0 0-.35-.13m-2.17-3.83.86.75-.86.75H5v-1.5zm.17-1H4.5c-.28 0-.5.2-.5.43v2.63c0 .24.22.44.5.44H17q.2 0 .35-.13l1.5-1.31a.4.4 0 0 0 0-.62l-1.5-1.32a.5.5 0 0 0-.35-.12"/></svg>