<svg xmlns="http://www.w3.org/2000/svg" viewBox="0 0 24 24" width="100%" height="100%"><path d="M13.46 21h1.83a10 10 0 0 1 4.78-1H21v-1h-.93a10.5 10.5 0 0 0-6.61 2M19 11.16 15 3l-3.55 7.1L9 6l-4.19 7.31h-.06A5 5 0 0 0 3 13v1a4 4 0 0 1 1.37.2 5 5 0 0 1 1.29.8 3.5 3.5 0 0 1 1.18 2.15 26 26 0 0 0-2.75 3.63L4 21h1.13c3.94-6 8.69-8.7 15.87-9v-1c-.71 0-1.39.09-2 .16M7.67 16.31a4.5 4.5 0 0 0-1.36-2.07 6 6 0 0 0-.62-.45L9 8l1.91 3.18-2 4.05a12 12 0 0 0-1.24 1.08m3-2.38L15 5.24l2.91 6.06a19 19 0 0 0-7.26 2.63Zm4.95 1.94a15 15 0 0 0-3.88 1.87l.56.83a14 14 0 0 1 3.7-1.78ZM8.23 21h1.3a14 14 0 0 1 1.74-1.69l-.63-.78A15 15 0 0 0 8.23 21m8.52-5.56.25 1a14 14 0 0 1 4-.44v-1a15 15 0 0 0-4.25.44"/></svg>