<svg xmlns="http://www.w3.org/2000/svg" viewBox="0 0 24 24" width="100%" height="100%"><path d="M18.5 9.52a.5.5 0 0 1-.47-.32c-.99-2.63-2.43-3.99-4.83-4.53-3-.69-5.83 1.69-5.85 1.71a.5.5 0 0 1-.66-.76c.13-.1 3.23-2.73 6.73-1.93 2.73.62 4.44 2.21 5.55 5.15a.5.5 0 0 1-.47.68"/><path d="M7 18.52a.5.5 0 0 1-.5-.5c0-3.7 1.86-8.84 4.9-8.84a3.2 3.2 0 0 1 3.06 3.33c0 .65-.36 1.56-.7 2.44-.23.58-.51 1.3-.51 1.56 0 .98.69.98.91.98 1.7 0 2.26-3.44 2.26-5.02 0-.2-.05-5.22-4.4-5.22-5.16 0-6.55 6.73-6.56 6.8a.5.5 0 0 1-.98-.2c0-.07 1.56-7.6 7.54-7.6 4.27 0 5.4 4.07 5.4 6.22 0 1.68-.58 6.02-3.26 6.02-1.41 0-1.91-1.06-1.91-1.98 0-.46.26-1.14.57-1.92a8 8 0 0 0 .64-2.08c0-1.44-1.07-2.33-2.06-2.33-2.1 0-3.9 4.3-3.9 7.84a.5.5 0 0 1-.5.5"/><path d="M10.98 21a.5.5 0 0 1-.32-.11c-.05-.05-1.43-1.19-1.43-2.86 0-2.07 1.73-6.03 1.8-6.2a.5.5 0 1 1 .91.4c0 .04-1.71 3.94-1.71 5.8 0 1.19 1.06 2.08 1.07 2.09a.5.5 0 0 1-.32.88"/></svg>