<svg xmlns="http://www.w3.org/2000/svg" viewBox="0 0 24 24" width="100%" height="100%"><path d="M20 4H3v16h1V9h16v11h1V4Zm0 4H4V5h16Z"/><path d="M18.63 13.68h.07a.4.4 0 0 0 .3-.33.4.4 0 0 0-.37-.34h-.84a.4.4 0 0 0-.3.19l-.27.41h-.27A3.15 3.15 0 0 0 13.71 11h-3.42a3.15 3.15 0 0 0-3.24 2.55h-.27l-.27-.41a.4.4 0 0 0-.3-.19h-.84a.4.4 0 0 0-.37.34.4.4 0 0 0 .3.33H6l.09.13C5 14.44 5 16.05 5 16.76v2.51a.73.73 0 0 0 .72.73H7c.39 0 1.19 0 1.19-.95l7.59-.05v.05c0 .95.8.95 1.19.95h1.28a.76.76 0 0 0 .75-.73v-2.51c0-.71 0-2.32-1.12-3l.09-.13ZM10.29 12h3.42a2.15 2.15 0 0 1 2.21 1.53H8.08A2.15 2.15 0 0 1 10.29 12M18 16.76V19h-1.22v-.5a.5.5 0 0 0-.5-.5h-1.45a.5.5 0 0 0-.5-.5H9.67a.5.5 0 0 0-.5.5H7.72a.5.5 0 0 0-.5.5v.5H6v-2.24c0-1.86.43-2.23 1.17-2.23h9.66c.74 0 1.17.37 1.17 2.23"/><path d="M17.1 15.2h-.88a1.1 1.1 0 0 0-1.11 1.12l.05.05h2.13a.15.15 0 0 0 .15-.16v-.5c0-.43-.06-.51-.34-.51m-9.32 0H6.9c-.28 0-.34.08-.34.51v.5a.15.15 0 0 0 .15.16h2.13l.05-.05a1.1 1.1 0 0 0-1.11-1.12"/></svg>