<svg xmlns="http://www.w3.org/2000/svg" viewBox="0 0 24 24" width="100%" height="100%"><path d="M12 3a9 9 0 1 0 9 9 9 9 0 0 0-9-9m7.41 6H15.8a14 14 0 0 0-1.34-4.61A8 8 0 0 1 19.41 9M15 12c0 .7 0 1.37-.09 2H9.09C9 13.37 9 12.7 9 12s0-1.37.09-2h5.82c.09.63.09 1.3.09 2m-3 8a8 8 0 0 1-1.11-.09A11 11 0 0 1 9.21 15h5.58a11 11 0 0 1-1.68 4.91A8 8 0 0 1 12 20M9.21 9a11 11 0 0 1 1.68-4.91A8 8 0 0 1 12 4a8 8 0 0 1 1.11.09A11 11 0 0 1 14.79 9Zm.34-4.61A14 14 0 0 0 8.2 9H4.59a8 8 0 0 1 4.96-4.61M4.26 10H8.1c-.1.65-.1 1.31-.1 2s0 1.35.1 2H4.26a8 8 0 0 1 0-4m.33 5H8.2a14 14 0 0 0 1.35 4.61A8 8 0 0 1 4.59 15m9.87 4.61A14 14 0 0 0 15.8 15h3.61a8 8 0 0 1-4.95 4.61M19.74 14H15.9q.1-.97.1-2c0-1.03 0-1.35-.1-2h3.84a8 8 0 0 1 0 4"/></svg>