<svg xmlns="http://www.w3.org/2000/svg" viewBox="0 0 24 24" width="100%" height="100%"><path d="M18.07 7a8 8 0 0 0-2.71.71q-2.2.95-2.18 2.29H5l-.29.29-1 1L3 12l.69.71 1 1 .69.7.69-.7.67-.71h.17l.69.71.69.7.69-.7.69-.71h.17l.69.71.69.7.7-.7.69-.71h.57q-.01 1.34 2.18 2.29a8 8 0 0 0 2.71.71C19 16 21 16 21 14V9c0-2-2-2-2.93-2m-4.89 5h-1l-1 1-1-1h-1l-1 1-1-1h-1l-1 1-1-1 1-1H13ZM20 14c0 1-1 1-1.95 1s-3.91-1-3.91-2v-3c0-1 2.93-2 3.91-2S20 8 20 9Z"/><path d="M18.56 9a.5.5 0 0 0-.49.5v4a.5.5 0 0 0 .49.5.5.5 0 0 0 .48-.5v-4a.5.5 0 0 0-.48-.5"/></svg>