<svg xmlns="http://www.w3.org/2000/svg" viewBox="0 0 24 24" width="100%" height="100%"><path fill-rule="evenodd" d="m20.58 3.72-.17-.23-.26-.19A16 16 0 0 0 17 3a15 15 0 0 0-6.38 1.37 11 11 0 0 0-2 1.22 9 9 0 0 0-1.23 1.07L7 7.11l-.22.28-.29.38c-1.94 2.54-2.1 5.32.61 8.32l.06.06L3 20.29l.71.71 4.13-4.13.22.21.58.46a6.8 6.8 0 0 0 4 1.42 6.8 6.8 0 0 0 4.54-1.9l.18-.16.39-.39.21-.23a11 11 0 0 0 .74-.94 12 12 0 0 0 1.19-2.2 16 16 0 0 0 .69-9.42m-1.59 9a11 11 0 0 1-1.08 2 9 9 0 0 1-.68.86l-.17.19-.33.33-.12.11-.07.06A5.8 5.8 0 0 1 12.67 18a5.8 5.8 0 0 1-3.44-1.23l-.5-.39-.18-.18L12 12.71l-.71-.71-3.44 3.44c-2.2-2.43-2.37-4.66-.56-7l.12-.17.12-.27.17-.22.36-.39a10 10 0 0 1 1.14-1 11 11 0 0 1 1.83-1.11A14 14 0 0 1 17 4a16 16 0 0 1 2.65.23 15 15 0 0 1-.65 8.53Z"/></svg>