<svg xmlns="http://www.w3.org/2000/svg" viewBox="0 0 24 24" width="100%" height="100%"><path d="m6.18 12.46-1 .34v2.61c0 .89-.34 1.06-1.68 1a4 4 0 0 0-.25-.87h.94q.18 0 .17-.18v-2.29l-.9.29a.2.2 0 0 1-.15.16L3 12.5l1.31-.34v-1.9h-1.2v-.83h1.2V7.51h1q0 .13-.22.16v1.76h1v.83h-1V12l1-.27.1.78Zm4.58.3.56.27a.3.3 0 0 1-.11.11 4.7 4.7 0 0 1-1.6 1.95 9 9 0 0 0 2.17.59 3 3 0 0 0-.55.79 9 9 0 0 1-2.49-.87 10 10 0 0 1-2.8.85 3 3 0 0 0-.4-.75A10 10 0 0 0 8 15.09a6 6 0 0 1-1.24-1.3l.55-.23H6.16v-.77h4.6Zm-2.38-.16V12h-2V8.3l.42.15a5 5 0 0 0 1-.62l.56.54V7.5l1 .07q0 .1-.21.14v3.52h1.32v-.8h-1v-.67h1V9h-1v-.74h1.76V12H9.16v.65Zm-1.22-1.37h1.22V8.5H8.3a7 7 0 0 1-1.14.5v.72H8v.67h-.84Zm.37 2.33a4 4 0 0 0 1.26 1.11 4 4 0 0 0 1.26-1.11Zm5.39-6a6 6 0 0 1 .9 1 8 8 0 0 0 .64-1l.88.45q-.02.08-.2.08a9 9 0 0 1-.88 1.3 8 8 0 0 1 .55 3.34 7 7 0 0 1-.48 3.27c-.19.25-.43.41-1.23.41h-.38a2 2 0 0 0-.23-.87h.59c.34 0 .48 0 .62-.17a9 9 0 0 0 .3-2.77 8 8 0 0 1-1.29 1.45 3 3 0 0 0-.57-.67 6 6 0 0 0 1.79-2.07 6 6 0 0 0-.27-1.21q-.43.44-.88.82a4 4 0 0 0-.6-.58 9 9 0 0 0 1.11-1.06 6 6 0 0 0-1-1.24l.61-.47Zm3.31.86a18 18 0 0 0 3.42-.93l.82.66a.3.3 0 0 1-.22.05l-.62.2c.16 3 .47 5.93 1.37 7.4a3 3 0 0 0-.65.67c-1-1.69-1.25-4.63-1.43-7.87-.77.2-1.65.38-2.47.52v2.35a13 13 0 0 1-.4 3.39l1.27-.08V9l.93.06q0 .1-.19.14v5.51h.68q-.16-.64-.34-1.19l.58-.16a18 18 0 0 1 .68 2.64l-.62.18q-.02-.34-.13-.75l-2.54.28a.2.2 0 0 1-.14.13L16 15a6 6 0 0 1-.69 1.49 2 2 0 0 0-.62-.56 8 8 0 0 0 1-4.47V8.25l.57.18Z"/></svg>