<svg xmlns="http://www.w3.org/2000/svg" viewBox="0 0 24 24" width="100%" height="100%"><path d="M22 7.54v-.6q0-.66-.12-1.31a4.3 4.3 0 0 0-3.5-3.5 10 10 0 0 0-1.31-.12H6.94q-.66 0-1.31.12-.65.1-1.25.41a4.3 4.3 0 0 0-2.25 3.09q-.1.65-.12 1.31v10.13q0 .66.12 1.31a4.3 4.3 0 0 0 3.5 3.5q.65.1 1.31.12h10.13q.66 0 1.31-.12a4.3 4.3 0 0 0 3.5-3.5q.1-.65.12-1.31zm-8.32 8.08c-.05.61-.15 1.43-.28 2.26-.09.59-.17.91-.23 1.14-.11.37-.52.7-1.17.7s-1.06-.32-1.17-.7a8 8 0 0 1-.23-1.14c-.13-.83-.23-1.65-.28-2.26a8 8 0 0 1-.03-1.51 1 1 0 0 1 .27-.58c.3-.32.83-.52 1.45-.52s1.15.2 1.45.52c.16.17.24.33.27.58.05.47.02.87-.03 1.51zm-4.29-1.55q.1.1.09.23v.8c0 .08-.08.13-.14.08a4.7 4.7 0 1 1 5.3 0c-.06.04-.15 0-.14-.08q.03-.42 0-.8 0-.14.09-.23a3.8 3.8 0 1 0-5.22 0zm4.24-3.35a1.64 1.64 0 1 1-3.28 0 1.64 1.64 0 0 1 3.28 0m.69 7.21c-.07.02-.14-.03-.12-.1l.1-.72a.2.2 0 0 1 .14-.19 6.14 6.14 0 0 0-2.49-11.75 6.13 6.13 0 0 0-2.39 11.75q.12.06.14.19l.1.72c.01.07-.06.13-.12.1a7.04 7.04 0 1 1 4.65 0z"/></svg>