<svg xmlns="http://www.w3.org/2000/svg" viewBox="0 0 24 24" width="100%" height="100%"><path d="M9.37 4.69c3.13 0 5.88 1.9 6.43 4.46h-.61a5.2 5.2 0 0 0-5.42 5 5 5 0 0 0 .2 1.33h-.6a11 11 0 0 1-2.23-.32l-2.23 1.13.64-1.91A5.2 5.2 0 0 1 3 10.09c0-3.02 2.87-5.4 6.37-5.4M7.3 9a.76.76 0 0 0 .8-.8.75.75 0 0 0-.8-.79.9.9 0 0 0-1 .79.9.9 0 0 0 1 .8m4.46 0a.76.76 0 0 0 .8-.8.75.75 0 0 0-.8-.79.9.9 0 0 0-1 .79.9.9 0 0 0 1 .8M21 14.07a4.8 4.8 0 0 1-2.23 3.65l.48 1.59-1.75-.95a8 8 0 0 1-1.91.32c-3 0-5.42-2.07-5.42-4.61s2.39-4.61 5.42-4.61c2.86 0 5.41 2.07 5.41 4.61m-7.17-.8a.73.73 0 0 0 .8-.64.73.73 0 0 0-.8-.63.64.64 0 1 0 0 1.27m3.51 0a.7.7 0 0 0 .79-.64.73.73 0 0 0-.79-.63.64.64 0 1 0 0 1.27"/></svg>