<svg xmlns="http://www.w3.org/2000/svg" viewBox="0 0 24 24" width="100%" height="100%"><path d="M11.86 8.28h3.23c.8 0 2.54 0 3 .05l-.42.67a13 13 0 0 0-1.73.34c-.42.14-4 3-4.22 3.71a5 5 0 0 0-.09 1l-.05.58a12 12 0 0 0 .14 1.37c.23.05 1.92 0 2.25.05l-.05.73h-3.7c-.66 0-2.67.05-3.28.05l.06-.65c.33 0 1.74.05 2.06-.29.14-.15.1-.34.1-1.32v-.44a8 8 0 0 0 0-1 37 37 0 0 0-4.1-5.2c-.23 0-1.69-.19-2.06-.29V7c.19-.1 1.83 0 3.42 0h3.71l-.1.53c-.28.1-1.83.15-2.2.25 1 1.56 2.62 3.61 3.14 4.39.28-.44 2.81-2.24 2.9-2.88A17 17 0 0 0 12 9zm8-.25c.79.1.94.1 1.17.15l-.36 1.12c-.33.93-1.17 5-1.26 5.27l-1.13-.1c.1-.58 0-5.17 0-5.66l-.05-1a12 12 0 0 0 1.6.19ZM18 15.55l.8.1h.65l-.18 1.37h-.61l-.61-.09Z"/></svg>