<svg xmlns="http://www.w3.org/2000/svg" viewBox="0 0 24 24" width="100%" height="100%"><path d="M11.81 17.08h1.07a1 1 0 0 0 .5-.21 1 1 0 0 0 .14-.47s0-1.42.65-1.63 1.51 1.38 2.41 2a1.7 1.7 0 0 0 1.2.36h2.4s1.26-.07.66-1a8 8 0 0 0-1.79-2c-1.51-1.38-1.3-1.15.51-3.54C20.67 9 21.11 8.11 21 7.73s-1-.27-1-.27h-2.71a.6.6 0 0 0-.35.06 1 1 0 0 0-.24.29 16 16 0 0 1-1 2.08c-1.2 2-1.69 2.12-1.88 2-.46-.29-.35-1.18-.35-1.8 0-2 .3-2.77-.58-3A5 5 0 0 0 11.66 7a6 6 0 0 0-2.25.23c-.31.15-.55.48-.4.5a1.2 1.2 0 0 1 .8.39 2.6 2.6 0 0 1 .27 1.21s.16 2.3-.38 2.59c-.36.2-.86-.2-1.94-2a16 16 0 0 1-1-2 1 1 0 0 0-.23-.3 1 1 0 0 0-.41-.16H3.59s-.39 0-.53.18 0 .45 0 .45 2 4.65 4.29 7a6.2 6.2 0 0 0 4.47 2Z"/></svg>