<svg xmlns="http://www.w3.org/2000/svg" viewBox="0 0 24 24" width="100%" height="100%"><path d="M14.63 14.8a4 4 0 0 1-.42 1.93 4 4 0 0 1-1.14 1.42 5 5 0 0 1-1.84.94 10 10 0 0 1-2.54.28H3V4.5h5a19 19 0 0 1 2.51.12 5 5 0 0 1 1.57.53 3 3 0 0 1 1.21 1.1 3.5 3.5 0 0 1 .39 1.66 3.4 3.4 0 0 1-.54 1.91 3.6 3.6 0 0 1-1.53 1.29v.08a4 4 0 0 1 2.2 1.2 3.5 3.5 0 0 1 .82 2.41M9.94 8.69a1.4 1.4 0 0 0-.17-.64 1 1 0 0 0-.63-.5 3 3 0 0 0-1-.17H6.58v2.74h1.6a3 3 0 0 0 1-.17 1 1 0 0 0 .65-.51 2 2 0 0 0 .15-.73Zm.89 6.06a2 2 0 0 0-.26-1.06 1.6 1.6 0 0 0-.89-.55A5 5 0 0 0 8.5 13H6.57v3.58h2a3 3 0 0 0 1.23-.25 1.5 1.5 0 0 0 .78-.64 2 2 0 0 0 .22-.92ZM21 4.5 20.56 15h-3.1L17 4.5Zm-.3 13.37a1.69 1.69 0 1 1-1.7-1.63 1.66 1.66 0 0 1 1.7 1.63"/></svg>