<svg xmlns="http://www.w3.org/2000/svg" viewBox="0 0 24 24" width="100%" height="100%"><path d="M18.38 5.62A9 9 0 0 0 12.06 3a9 9 0 0 0-9 8.92 9 9 0 0 0 1.24 4.5L3 21l4.75-1.24A9 9 0 0 0 12 20.84a9 9 0 0 0 9-8.91 8.8 8.8 0 0 0-2.62-6.28ZM12 19.34a7.5 7.5 0 0 1-3.83-1.05L8 18.15l-2.82.73.76-2.73-.18-.28a7.3 7.3 0 0 1-1.14-3.94 7.45 7.45 0 0 1 14.9 0A7.45 7.45 0 0 1 12 19.34m4.09-5.55c-.23-.12-1.33-.65-1.53-.73s-.36-.11-.51.11-.58.73-.71.87-.26.17-.48.06a6 6 0 0 1-1.77-1.1 7 7 0 0 1-1.24-1.54A.32.32 0 0 1 10 11l.33-.39a2 2 0 0 0 .23-.37.4.4 0 0 0 0-.39c-.06-.11-.51-1.21-.69-1.66s-.37-.37-.51-.38h-.49a1 1 0 0 0-.6.28 2.5 2.5 0 0 0-.79 1.86 4.4 4.4 0 0 0 .92 2.31 10 10 0 0 0 3.82 3.36 12 12 0 0 0 1.19.45 3 3 0 0 0 1 .16 3 3 0 0 0 .54-.05 2.3 2.3 0 0 0 1.49-1.06 2 2 0 0 0 .11-1.12c-.05-.09-.2-.14-.42-.26Z"/></svg>