<svg xmlns="http://www.w3.org/2000/svg" viewBox="0 0 24 24" width="100%" height="100%"><path d="M8.93 14.38V10.8c0-.23-.07-.28-.28-.28H7.01c-.2 0-.28 0-.27-.28V8.41A.34.34 0 0 1 7 8.06 6 6 0 0 0 9.42 5.9a5 5 0 0 0 .81-2.62c0-.23.08-.28.28-.28h1.67c.21 0 .27.07.27.29v4.09c0 .25.06.32.3.32h3.78c.25 0 .3.08.3.32v2.26c0 .22-.07.26-.25.26h-3.83c-.23 0-.31 0-.31.31v5.2a4 4 0 0 0 .05.6 1.83 1.83 0 0 0 1.81 1.65 6 6 0 0 0 2.63-.63c.31-.13.31-.13.31.21v2.26c0 .13 0 .22-.15.26a13 13 0 0 1-5.17.54 4 4 0 0 1-1.73-.63 2.8 2.8 0 0 1-1.26-2.42V14.4Z"/></svg>