<svg xmlns="http://www.w3.org/2000/svg" viewBox="0 0 24 24" width="100%" height="100%"><path d="m10 9.72-.67 1.91h1.36z"/><path d="M12 3C6.48 3 2 6.54 2 10.91c0 2.84 1.9 5.33 4.74 6.72l-.86 3.27c-.11.44.2.54.42.39l3.84-2.62a13 13 0 0 0 1.86.14c5.52 0 10-3.54 10-7.9S17.52 3 12 3M7.08 13.07a.5.5 0 0 1-.49.49h-.1a.5.5 0 0 1-.34-.14.5.5 0 0 1-.15-.35v-3.5H5a.5.5 0 1 1 0-1h3a.5.5 0 0 1 0 1h-.9Zm4.79.46a.5.5 0 0 1-.62-.29l-.25-.71H9l-.25.71a.5.5 0 0 1-.62.29.47.47 0 0 1-.29-.61l1.44-3.85v-.06a.7.7 0 0 1 .71-.5.7.7 0 0 1 .68.42l1.46 4a.47.47 0 0 1-.26.6m3.13 0h-2a.45.45 0 0 1-.45-.45v-4a.54.54 0 1 1 1.07 0v3.57H15a.47.47 0 0 1 .46.46.46.46 0 0 1-.46.42m4.25-.06a.5.5 0 0 1-.67-.1l-1.44-1.88-.3.31V13a.54.54 0 0 1-.54.54.54.54 0 0 1-.54-.54V9a.54.54 0 0 1 .54-.54.54.54 0 0 1 .54.54v1.4l1.69-1.69a.47.47 0 1 1 .67.67l-1.37 1.42 1.52 2a.5.5 0 0 1-.1.67"/></svg>