<svg xmlns="http://www.w3.org/2000/svg" viewBox="0 0 24 24" width="100%" height="100%"><path d="M3 14.51A4 4 0 0 0 5.3 18a10.3 10.3 0 0 0 5.25 1.32 10 10 0 0 0 5.8-1.64q2.35-1.65 2.35-3.48a2 2 0 0 0-.64-1.57 4 4 0 0 0-1.55-.9q-.41-.13-.27-.45a1.9 1.9 0 0 0 0-1.79 1.8 1.8 0 0 0-1.55-.64 6 6 0 0 0-2.45.6q-.46.18-.46-.09v-.1a2.1 2.1 0 0 0-.18-2.15q-.72-.73-2.46-.05a11 11 0 0 0-3.45 2.38Q3 12.14 3 14.51m1.84.71a3 3 0 0 1 1.32-2.67 7 7 0 0 1 3.71-1.42 7 7 0 0 1 3.91.66 3 3 0 0 1 1.82 2.36 3 3 0 0 1-1.34 2.67 6.7 6.7 0 0 1-3.71 1.42 7 7 0 0 1-3.89-.67 3 3 0 0 1-1.82-2.35m2.35.91a2.2 2.2 0 0 0 1.45 1.26 3 3 0 0 0 2.25-.11 2.8 2.8 0 0 0 1.57-1.53 2 2 0 0 0 0-1.92 2.3 2.3 0 0 0-1.57-1.19 3.2 3.2 0 0 0-2.11.18 3 3 0 0 0-1.53 1.42 2.2 2.2 0 0 0 0 1.9Zm.81-.27a.8.8 0 0 1 .11-.69 1.2 1.2 0 0 1 .59-.48 1 1 0 0 1 .75 0 .7.7 0 0 1 .46.5.8.8 0 0 1-.14.69 1.3 1.3 0 0 1-.61.48 1 1 0 0 1-.73 0 .7.7 0 0 1-.43-.5m2.09-1.44a.36.36 0 0 1 .5-.18q.32.13.14.46a.36.36 0 0 1-.5.18c-.23-.09-.23-.25-.13-.46Zm4.63-8.82A.7.7 0 0 0 15 6a.6.6 0 0 0 .5.12 3.2 3.2 0 0 1 3.23 1 3.2 3.2 0 0 1 .73 3.34.7.7 0 0 0 0 .5.6.6 0 0 0 .39.34 1 1 0 0 0 .55 0 .5.5 0 0 0 .32-.39 4.8 4.8 0 0 0-1-4.69 4.7 4.7 0 0 0-2.1-1.35 5 5 0 0 0-2.43-.13 1 1 0 0 0-.43.32.6.6 0 0 0-.09.5Zm.59 2.31q.11.57.7.43a1 1 0 0 1 1.07.37 1.1 1.1 0 0 1 .25 1.09.55.55 0 0 0 .37.78q.54.2.72-.41A2.2 2.2 0 0 0 18 7.91a2.2 2.2 0 0 0-2.21-.71.53.53 0 0 0-.43.71Z"/></svg>