<svg xmlns="http://www.w3.org/2000/svg" viewBox="0 0 24 24" width="100%" height="100%"><path d="M12.55 13.79a3 3 0 0 1 .25 1.72 3.3 3.3 0 0 1-.6 1.58 3 3 0 0 1-1.67 1.11 6 6 0 0 1-1.75.28 8 8 0 0 1-2.08-.19 3.4 3.4 0 0 1-2.27-1.68A4 4 0 0 1 4 15v-.09h2.22v.14a2 2 0 0 0 .21.63 1.5 1.5 0 0 0 .81.69 3.7 3.7 0 0 0 2.51.09 1.2 1.2 0 0 0 .84-.82.9.9 0 0 0-.32-1 3 3 0 0 0-1-.53q-.7-.23-1.42-.41a16 16 0 0 1-2-.56 2.3 2.3 0 0 1-1.27-1 3.5 3.5 0 0 1-.1-3 3 3 0 0 1 1.7-1.45 6 6 0 0 1 1.69-.31 6 6 0 0 1 2.38.26 3.1 3.1 0 0 1 2.12 2.45 3 3 0 0 1 .07.55v.07h-2a2 2 0 0 0-.19-.55 1.7 1.7 0 0 0-1.33-.94 4 4 0 0 0-1.62 0 1.2 1.2 0 0 0-.91 1.17.8.8 0 0 0 .3.61 3 3 0 0 0 1 .48l2.27.6a8 8 0 0 1 1.43.48 2.4 2.4 0 0 1 1.16 1.23m3.46.33L18.3 21l-.65-.46-4.44-3.15v-.07a4 4 0 0 0 .55-1.32l1.68 1.19-.13-.4-1.07-3.2 3.15-2.23h-3.91v-.16a9 9 0 0 0-.07-1.06 4 4 0 0 0-1.05-2.28 4 4 0 0 0-1.27-.94h-.08L12.3 3l2.28 6.87H22l-6 4.25Z"/></svg>