<svg xmlns="http://www.w3.org/2000/svg" viewBox="0 0 24 24" width="100%" height="100%"><path d="M20.42 13.05a15 15 0 0 0-1.18-2 2 2 0 0 0 0-1.63 6 6 0 0 1-.37-.66c-.13-.37-.11-.8-.2-1.15a8 8 0 0 0-.31-1C17.54 4.45 15.79 3.26 13 3h-1.08a8 8 0 0 0-2.28.53A5 5 0 0 0 8 4.65a6 6 0 0 0-1.86 3.6v.36c0 .11-.14.18-.14.3a2 2 0 0 0-.12.69 1.6 1.6 0 0 0-.29 1.47 7 7 0 0 0-1.92 2.12A5 5 0 0 0 3 16c0 .31.08.77.34.83a1 1 0 0 0 .41-.09 2.3 2.3 0 0 0 .84-.74c.09-.15.11-.34.26-.45A2 2 0 0 1 5 16a4.7 4.7 0 0 0 1.45 2c.1.08.26.16.29.27-.67.06-1.21.2-1.44.64a2 2 0 0 0-.14.82c.06.52.67.81 1.13 1a9 9 0 0 0 3.12.27 5 5 0 0 0 2.34-.67c.11-.06.19-.16.28-.17h.78a7 7 0 0 1 .86.28c1.53.49 4.11.6 5.35-.18a1 1 0 0 0 .48-.63.9.9 0 0 0-.5-.83 9 9 0 0 0-1.22-.71 5 5 0 0 0 1.1-1.67 2 2 0 0 1 .3-.62 7 7 0 0 0 .42.71c.14.2.33.52.6.51a.6.6 0 0 0 .41-.27 2 2 0 0 0 .39-1.13 5 5 0 0 0-.57-2.56Z"/></svg>