<svg xmlns="http://www.w3.org/2000/svg" viewBox="0 0 24 24" width="100%" height="100%"><path d="m5.11 8 .78-1.73c.1-.2.35-.61.83-.37s.2.82.2.82l-2 4.45s-.33.52-.77.28-.22-.8-.22-.8l.61-1.32s-1.05-1.8-1.42-2.5A.7.7 0 0 1 3.18 6c.42-.27.71-.11.94.25S5.11 8 5.11 8m3.53-2.16A2 2 0 0 1 10.52 8a2 2 0 0 1-1.88 2 2 2 0 0 1-1.86-2.1 2 2 0 0 1 1.86-2.06m0 3.2c.49 0 .86-.45.86-1.1s-.35-1.08-.85-1.08-.87.43-.87 1.08S8.16 9 8.65 9Zm2-2.51c0-.25.09-.62.52-.62s.48.35.48.6v1.84c0 .37.15.84.71.84s.68-.52.68-.85V6.52c0-.26.09-.6.49-.6a.5.5 0 0 1 .48.58v2c0 .83-.44 1.53-1.69 1.53a1.47 1.47 0 0 1-1.67-1.54v-2Zm7 0c0-.25.09-.62.52-.62s.47.35.47.6v1.84c0 .37.15.84.71.84s.69-.52.69-.85V6.52c0-.26.08-.6.48-.6a.5.5 0 0 1 .49.58v2c0 .83-.44 1.53-1.68 1.53a1.47 1.47 0 0 1-1.67-1.54v-2Zm-3.5 2.89V6.6a.55.55 0 1 1 1.09 0v1s1.18-1.25 1.42-1.47a.53.53 0 0 1 .72 0 .5.5 0 0 1 0 .71l-1 1.07 1.15 1.19a.5.5 0 0 1 0 .73.63.63 0 0 1-.83 0l-1.45-1.38v1a.55.55 0 1 1-1.09 0Zm-6.3 3.06A8 8 0 0 1 7.25 14v4.15h-.72v-2.9a5 5 0 0 1-.38.58l-.64-.48a13 13 0 0 0 1.58-3.25zm-.07 5.71-.64-.56a4.2 4.2 0 0 0 1.58-3.19H7.49v-.64h1.29v-1.64h.7v1.64h2.28v.64h-1.37v2.93c0 .08 0 .12.11.12h.5q.12 0 .18-.16a8 8 0 0 0 .07-1.08l.76.23v.61a1 1 0 0 1-.79 1.1h-.94a.7.7 0 0 1-.6-.63v-3.1H9.5a5.2 5.2 0 0 1-1.73 3.75Zm3.87-5-.48.53-1.16-1 .49-.52 1.15 1Zm5.88 1.39h1.19v.6h-3.07v-.6h1.24v-.86h-.59a5 5 0 0 1-.16.69l-.61-.1a12 12 0 0 0 .26-1.8h.67a3 3 0 0 1-.05.61h.47v-.84h.66v.84h.94v.61h-.95zm-1.75 3v-2.07h2.69v2.17s-.07.51-.54.51h-1.67c-.25 0-.48-.19-.48-.61m.69-1.47v1.31s0 .15.2.15h1a.14.14 0 0 0 .16-.15v-1.31Zm-1.27-2.55c.2 0 .22.1.22.32v3.72s-.27.59-.49.59H13c-.37 0-.65-.16-.65-.56v-3.84a.2.2 0 0 1 .23-.23h.73V13h-1v-.61h3.09V13h-.82v.6Zm-.61.73v.89c0 .08 0 .12.08.12h.16v-1ZM13.86 13v.6H14V13ZM13 14.29v1.19a1.3 1.3 0 0 0 .25-.75v-.44Zm0 1.46v.48h1.78v-.36h-.37a.47.47 0 0 1-.45-.5v-1.08h-.13v.4a1.6 1.6 0 0 1-.46 1.31Zm1.66 1.82c.16 0 .12-.11.12-.11v-.62H13v.62a.12.12 0 0 0 .13.11Z"/></svg>