<svg xmlns="http://www.w3.org/2000/svg" viewBox="0 0 24 24" width="100%" height="100%"><path d="M5.25 9.47a5.5 5.5 0 0 0 .52 2.44 3 3 0 0 0 1.54 1.5.32.32 0 0 0 .5-.24 2 2 0 0 1 .08-.44 2 2 0 0 1 .12-.4.6.6 0 0 0-.16-.56 3 3 0 0 1-.66-2 5 5 0 0 1 1.38-3.5 4.7 4.7 0 0 1 3.55-1.45 4.2 4.2 0 0 1 3.08 1.1 4 4 0 0 1 1.11 2.88 8 8 0 0 1-.9 3.88 2.6 2.6 0 0 1-2.28 1.59 1.6 1.6 0 0 1-1.3-.58 1.5 1.5 0 0 1-.3-1.39l.35-1.27.39-1.39a4 4 0 0 0 .16-1 1.7 1.7 0 0 0-.35-1.09 1.2 1.2 0 0 0-1-.44 1.7 1.7 0 0 0-1.38.77 3 3 0 0 0-.56 1.89 5 5 0 0 0 .08.86 1.4 1.4 0 0 0 .19.58l.08.2L8.16 17a11 11 0 0 0 0 3.94.1.1 0 0 0 .08.1.2.2 0 0 0 .15 0 11 11 0 0 0 1.79-3.41q.74-2.62.74-2.82a2.2 2.2 0 0 0 .95.9 3 3 0 0 0 1.49.39 4.7 4.7 0 0 0 3.88-2 8.3 8.3 0 0 0 1.51-5.11A5.6 5.6 0 0 0 17 4.77 6.2 6.2 0 0 0 12.43 3a7 7 0 0 0-5.26 2 6.3 6.3 0 0 0-1.92 4.47"/></svg>