<svg xmlns="http://www.w3.org/2000/svg" viewBox="0 0 24 24" width="100%" height="100%"><path d="m5.08 4.28 3.68 4.55-1 1-.58.58.45.68.36.54A16 16 0 0 0 12.36 16l.52.35.68.45.58-.58 1-1 4.56 3.69A7.6 7.6 0 0 1 16.17 20H16a9 9 0 0 1-3.11-.92 17 17 0 0 1-5.66-4.44A15 15 0 0 1 4.46 10 7 7 0 0 1 4 7.46l.06-.31a8 8 0 0 1 1-2.87M5 3a.6.6 0 0 0-.46.25A9 9 0 0 0 3.08 7c0 .08-.05.24-.05.25v.09a8 8 0 0 0 .51 3 17 17 0 0 0 2.93 4.92 18 18 0 0 0 6 4.7A10 10 0 0 0 16 21h.27a8.6 8.6 0 0 0 4.51-1.55A.6.6 0 0 0 21 19a.6.6 0 0 0-.22-.49l-5.27-4.26a.6.6 0 0 0-.37-.14.6.6 0 0 0-.42.18l-1.29 1.28-.52-.34A15 15 0 0 1 8.8 11.1l-.36-.54 1.29-1.28a.6.6 0 0 0 0-.8L5.51 3.22A.6.6 0 0 0 5 3"/></svg>