<svg xmlns="http://www.w3.org/2000/svg" viewBox="0 0 24 24" width="100%" height="100%"><path d="M5 19h14v1H5zM15 6a8 8 0 0 0 .53 2.66A7 7 0 0 1 16 11a7 7 0 0 1-.47 2.34A8 8 0 0 0 15 16v1h1v-1a7 7 0 0 1 .47-2.34A8 8 0 0 0 17 11a8 8 0 0 0-.53-2.66A7 7 0 0 1 16 6V5h1l-1.5-2L14 5h1ZM7 6a8 8 0 0 0 .53 2.66A7 7 0 0 1 8 11a7 7 0 0 1-.47 2.34A8 8 0 0 0 7 16v1h1v-1a7 7 0 0 1 .47-2.34A8 8 0 0 0 9 11a8 8 0 0 0-.53-2.66A7 7 0 0 1 8 6V5h1L7.5 3 6 5h1Zm4 0a8 8 0 0 0 .53 2.66A7 7 0 0 1 12 11a7 7 0 0 1-.47 2.34A8 8 0 0 0 11 16v1h1v-1a7 7 0 0 1 .47-2.34A8 8 0 0 0 13 11a8 8 0 0 0-.53-2.66A7 7 0 0 1 12 6V5h1l-1.5-2L10 5h1Z"/></svg>