<svg xmlns="http://www.w3.org/2000/svg" viewBox="0 0 24 24" width="100%" height="100%"><path d="M20.13 8.35A11 11 0 0 0 18.24 7 6 6 0 0 0 15 6a5 5 0 0 0-1.12.18l1.12.91a5 5 0 0 1 2.73.78 11 11 0 0 1 1.72 1.22 2.3 2.3 0 0 1 .55 1.29v6.12l-2.87 2.18-6.23-6.49a.8.8 0 0 1-.29-.49 1 1 0 0 1 .29-.48 1 1 0 0 1 .48-.3 1 1 0 0 1 .49.3l1.57 1.57.71.71.1.1 2.83-2.83L9.3 3 3 9.11 10.83 17l.71-.71-.76-.83-6.37-6.35 4.89-4.7 6.36 6.36-1.41 1.42-.1-.11-1.57-1.57a1.8 1.8 0 0 0-1.2-.59 1.7 1.7 0 0 0-1.19.59 1.52 1.52 0 0 0 0 2.39L17 20l4-3v-6.73a3 3 0 0 0-.87-1.92"/></svg>