<svg xmlns="http://www.w3.org/2000/svg" viewBox="0 0 24 24" width="100%" height="100%"><path d="m9.22 7.06-.7.33.74-2.05L8.3 5 7 8.67l3.67 1.3.33-.94-2.04-.73.7-.34c1.2-.58 3.71-1.78 6.96-.47l.38-.93a9.1 9.1 0 0 0-7.78.5M17.7 20c-.76 0-1.47-.4-1.88-1.03H8.31a2.24 2.24 0 0 1-3.7.09q-1.7.06-2.3-.82a1.5 1.5 0 0 1-.28-1.2c.1-.48.44-.81.63-.93.44-.28.77-.5.9-.62.24-.21.8-.7 2.11-.95.92-.17 2.12-.2 2.56-.2.3-.21 1.02-.72 1.85-1.1a7 7 0 0 1 2.03-.72q1.69-.31 5.6.68c1.85.44 4.29 1.3 4.29 3.5 0 .43 0 1.7-.7 1.82l-1.59.21a2.2 2.2 0 0 1-2 1.27M8 17.97h8.12q.31 0 .45.3a1.23 1.23 0 0 0 2.31-.16.5.5 0 0 1 .45-.35l.26-.02 1.33-.18c.04-.13.08-.38.08-.85 0-.72-.37-1.77-3.52-2.54-3.07-.78-4.51-.8-5.18-.67-.6.12-.83.17-1.8.63-.95.46-1.8 1.1-1.8 1.1q-.12.13-.3.1c.01.02-1.52 0-2.54.2-1.05.19-1.45.55-1.6.68a9 9 0 0 1-1.07.75c-.1.07-.34.31-.06.72.15.21.55.45 1.62.37l.13-.01q.3 0 .44.27a1.23 1.23 0 0 0 2.23-.05.5.5 0 0 1 .46-.3"/></svg>