<svg xmlns="http://www.w3.org/2000/svg" viewBox="0 0 24 24" width="100%" height="100%"><path d="M14.28 7.27h.78l-1.54 1.55.71.72L17 6.77 14.23 4l-.71.72 1.54 1.54h-.77A9.2 9.2 0 0 0 7 9.16l.74.68c2.4-2.6 5.2-2.58 6.54-2.57m4.44 6.28.97-.71a.5.5 0 0 0-.1-.87l-3.45-1.45-.39.92 2.63 1.11-1.1.8a.5.5 0 0 0 .18.89c3.14.77 3.54 1.72 3.54 2.47 0 .47-.04.72-.08.85l-1.33.18-.26.02a.5.5 0 0 0-.45.35 1.23 1.23 0 0 1-2.3.15.5.5 0 0 0-.46-.3H8a.5.5 0 0 0-.46.3 1.23 1.23 0 0 1-2.23.05.5.5 0 0 0-.44-.27h-.13c-1.07.1-1.47-.15-1.62-.36-.28-.41-.04-.65.06-.72q.75-.47 1.07-.75c.16-.14.56-.5 1.6-.68 1.02-.2 2.53-.18 2.53-.2a.5.5 0 0 0 .3-.1c.02 0 .86-.64 1.82-1.1.95-.45 1.75-.66 1.76-.66l-.25-.97c-.04 0-.9.23-1.94.73-.83.4-1.56.9-1.85 1.1-.44.01-1.64.04-2.56.21a4 4 0 0 0-2.1.95c-.14.12-.47.34-.9.62-.2.12-.54.45-.64.94-.06.27-.06.7.28 1.2q.6.87 2.3.8a2.22 2.22 0 0 0 3.7-.08h7.51a2.24 2.24 0 0 0 3.9-.24l1.57-.21c.71-.12.71-1.4.71-1.81 0-1.77-1.6-2.64-3.28-3.16"/></svg>