<svg xmlns="http://www.w3.org/2000/svg" viewBox="0 0 24 24" width="100%" height="100%"><path d="M18 12a3.07 3.07 0 0 0-3 3.12 6.5 6.5 0 0 0 1.19 3.08c.54.95 1.08 1.73 1.1 1.76L18 21l.71-1s.56-.81 1.1-1.76A6.5 6.5 0 0 0 21 15.12 3.07 3.07 0 0 0 18 12m1 5.7c-.39.67-.77 1.25-.95 1.53-.18-.27-.56-.85-.95-1.53a7 7 0 0 1-1.1-2.58A2.07 2.07 0 0 1 18 13a2.07 2.07 0 0 1 2 2.12 7 7 0 0 1-1 2.58M5.29 12 6 13l.71-1s.56-.81 1.1-1.76A6.5 6.5 0 0 0 9 7.12 3.07 3.07 0 0 0 6 4a3.07 3.07 0 0 0-3 3.12 6.5 6.5 0 0 0 1.19 3.08c.54.95 1.08 1.73 1.1 1.8M6 5a2.07 2.07 0 0 1 2 2.12A7 7 0 0 1 7 9.7c-.39.67-.77 1.25-1 1.53L5 9.7a7 7 0 0 1-1-2.58A2.07 2.07 0 0 1 6 5"/><path d="M5 16h2.92c1.08 0 1.86-.4 1.94-1.71 0-.21.24-.29.5-.29h2.28A2.5 2.5 0 0 0 15 11.46 2.45 2.45 0 0 0 12.64 9H10v1h2.64A1.44 1.44 0 0 1 14 11.46 1.54 1.54 0 0 1 12.64 13h-2.28a1.6 1.6 0 0 0-1.18.42 1 1 0 0 0-.32.8A.83.83 0 0 1 8 15H5a2 2 0 0 0 0 4h9v-1H5a1 1 0 0 1 0-2"/></svg>