<svg xmlns="http://www.w3.org/2000/svg" viewBox="0 0 24 24" width="100%" height="100%"><path d="M19 11h3v1h-3zm-1-3.58 2.49-1.43.5.86L18.5 8.3zm0 8.12.5-.87 2.48 1.44-.5.86zM2 11h3v1H2zm1.02-4.15.5-.86 2.49 1.43-.5.87zm-.01 9.26 2.49-1.43.5.86-2.49 1.44zM16.31 8a3.51 3.51 0 0 0 0 7q.22.02.27-.06A9 9 0 0 0 17 11.5a9 9 0 0 0-.43-3.44S16.45 8 16.31 8m-.46 5.91A2.4 2.4 0 0 1 14 11.5a2.4 2.4 0 0 1 1.84-2.4 16 16 0 0 1 .16 2.4 17 17 0 0 1-.15 2.41M7.69 8q-.21-.02-.26.06A9 9 0 0 0 7 11.5a9 9 0 0 0 .43 3.44s.13.06.27.06a3.51 3.51 0 0 0 0-7Zm.46 5.9A17 17 0 0 1 8 11.5a16 16 0 0 1 .16-2.4A2.4 2.4 0 0 1 10 11.5a2.4 2.4 0 0 1-1.85 2.4"/></svg>