<svg xmlns="http://www.w3.org/2000/svg" viewBox="0 0 24 24" width="100%" height="100%"><path d="m19.73 14.24-.24-1.01-2.69.77-4.3-2.48L16.87 9l2.61.75.24-1.02-2.31-.66.58-2.33-1-.3-.67 2.72-4.34 2.5V5.63l1.99-1.91-.76-.72-1.73 1.67L9.75 3 9 3.72l1.98 1.91v5.01l-4.32-2.5-.67-2.67-.99.29.58 2.34-2.31.66.24 1.01 2.65-.76 4.34 2.51-4.33 2.5-2.65-.77-.24 1.02 2.31.66-.58 2.33 1 .3.66-2.68 4.31-2.49v5.01l-1.95 1.88.76.72 1.73-1.67L13.25 20l.75-.72-2.02-1.94v-4.96l4.37 2.52.66 2.63.99-.3-.58-2.33z"/></svg>