<svg xmlns="http://www.w3.org/2000/svg" viewBox="0 0 24 24" width="100%" height="100%"><path d="M12 3a9 9 0 1 0 9 9 9 9 0 0 0-9-9m4 9.48a4 4 0 0 0-.56-1.48h4.49a8 8 0 0 1 .07 1v.05ZM12 16a3 3 0 1 1 3-3 3 3 0 0 1-3 3m0-12a8 8 0 0 1 7.74 6h-5.12a3.93 3.93 0 0 0-5.24 0H4.26A8 8 0 0 1 12 4m-7.93 7h4.49a4 4 0 0 0-.51 1.48L4 12.05V12a8 8 0 0 1 .07-1m0 2.06 4 .42a4 4 0 0 0 2 3l.37 3.37a8 8 0 0 1-6.36-6.79ZM11.44 20l-.34-3.08a4 4 0 0 0 1.8 0L12.56 20zm2.14-.13.42-3.4a4 4 0 0 0 2-3l4-.42a8 8 0 0 1-6.42 6.79Z"/></svg>