<svg xmlns="http://www.w3.org/2000/svg" viewBox="0 0 24 24" width="100%" height="100%"><path d="m14.85 9.26-2 2A2 2 0 0 0 12 11a2 2 0 1 0 1.75 1.05l1.95-2ZM12 14a1 1 0 1 1 1-1 1 1 0 0 1-1 1"/><path d="M12 4a9 9 0 0 0-6 15.71l2.11-2.11-.71-.71L6 18.28a8 8 0 0 1-1.59-2.73L6.33 15l-.25-1-1.91.51A8 8 0 0 1 4 13a8 8 0 0 1 .16-1.58l1.92.51.25-1-1.91-.51A8 8 0 0 1 6 7.72l1.4 1.39.71-.71L6.72 7a8 8 0 0 1 2.73-1.58L10 7.33l1-.25-.51-1.92a8 8 0 0 1 3.16 0l-.51 1.92 1 .25.51-1.91A8 8 0 0 1 17.28 7l-1.39 1.4.71.71L18 7.72a8 8 0 0 1 1.59 2.73l-1.92.55c.06.16.25 1 .25 1l1.92-.51A8 8 0 0 1 20 13a8 8 0 0 1-.17 1.58l-1.91-.51-.25 1 1.91.51a8 8 0 0 1-1.58 2.7l-1.4-1.39c-.11.13-.71.71-.71.71L18 19.71A9 9 0 0 0 12 4"/></svg>