<svg xmlns="http://www.w3.org/2000/svg" viewBox="0 0 24 24" width="100%" height="100%"><defs><clipPath id="a"><path d="M12 18a11.5 11.5 0 0 1-9.74-5.5L2 12l.27-.5A11.5 11.5 0 0 1 12 6a11.5 11.5 0 0 1 9.75 5.5l.25.5-.27.5A11.7 11.7 0 0 1 12 18m-8.87-6A10.6 10.6 0 0 0 12 17a10.6 10.6 0 0 0 8.86-5A10.6 10.6 0 0 0 12 7a10.6 10.6 0 0 0-8.85 5Z"/></clipPath></defs><path d="M12 18a11.5 11.5 0 0 1-9.74-5.5L2 12l.27-.5A11.5 11.5 0 0 1 12 6a11.5 11.5 0 0 1 9.75 5.5l.25.5-.27.5A11.7 11.7 0 0 1 12 18m-8.87-6A10.6 10.6 0 0 0 12 17a10.6 10.6 0 0 0 8.86-5A10.6 10.6 0 0 0 12 7a10.6 10.6 0 0 0-8.85 5Z"/><path d="M27.22 23.73H-3.22V.27h30.44Zm-29.44-1h28.44V1.27H-2.22Zm28.41-.07H-2.19V1.34h28.38Zm-27.38-1h26.38V2.34H-1.19Z" clip-path="url(#a)"/><path d="M12 10a2 2 0 1 1-2 2 2 2 0 0 1 2-2m0-1a3 3 0 1 0 3 3 3 3 0 0 0-3-3"/></svg>