<svg xmlns="http://www.w3.org/2000/svg" viewBox="0 0 24 24" width="100%" height="100%"><path d="M15.91 4a2 2 0 0 1 .84.2l.22.12-2.48 2.46A1.4 1.4 0 0 0 14 8.2a2.3 2.3 0 0 0 .72 1.06 1.8 1.8 0 0 0 1.31.74 1.6 1.6 0 0 0 1.11-.55L19.64 7l.14.26c.65 1.31-.27 2.38-1.35 3.46A3.2 3.2 0 0 1 16 12a2.7 2.7 0 0 1-1.51-.38l-.67-.4-.55.55-7.92 7.92a1 1 0 0 1-.52.31 1 1 0 0 1-.52-.31c-.12-.12-.32-.35-.31-.54a1 1 0 0 1 .31-.5l7.92-7.91.53-.53-.36-.66c-.86-1.7-.32-2.75.91-4C13.94 5 14.89 4 15.91 4m0-1c-1.44 0-2.6 1.16-3.31 1.87C11.5 6 10.25 7.53 11.52 10L3.6 17.94a1.56 1.56 0 0 0 0 2.46 1.8 1.8 0 0 0 1.23.6 1.8 1.8 0 0 0 1.23-.6L14 12.48a3.7 3.7 0 0 0 2 .52 4.2 4.2 0 0 0 3.14-1.59c.92-.92 2.56-2.55 1.54-4.62a5 5 0 0 0-1-1.29l-3.22 3.24q-.24.26-.4.26c-.16 0-.31-.14-.61-.44-.53-.54-.6-.73-.25-1.08l3.26-3.23a5 5 0 0 0-1.28-1A3 3 0 0 0 15.91 3"/></svg>